<svg xmlns="http://www.w3.org/2000/svg" viewBox="0 0 900 700" role="img" aria-label="Sala de ejemplo">
  <defs>
    <linearGradient id="bg" x1="0" y1="0" x2="1" y2="1">
      <stop offset="0" stop-color="#eef3f9"/>
      <stop offset="1" stop-color="#f7ead7"/>
    </linearGradient>
    <linearGradient id="navy" x1="0" y1="0" x2="1" y2="1">
      <stop offset="0" stop-color="#17324d"/>
      <stop offset="1" stop-color="#24527a"/>
    </linearGradient>
    <linearGradient id="gold" x1="0" y1="0" x2="1" y2="1">
      <stop offset="0" stop-color="#d8a03a"/>
      <stop offset="1" stop-color="#f2bc52"/>
    </linearGradient>
  </defs>
  <rect width="900" height="700" rx="36" fill="url(#bg)"/>
  <circle cx="770" cy="120" r="112" fill="#17324d" opacity="0.08"/>
  <circle cx="160" cy="120" r="84" fill="#d8a03a" opacity="0.12"/>
  <rect x="0" y="560" width="900" height="140" fill="#eadfcf"/>
  <rect x="250" y="320" width="300" height="120" rx="42" fill="url(#navy)"/>
  <rect x="220" y="280" width="340" height="78" rx="35" fill="#3d5875"/>
  <rect x="200" y="385" width="30" height="120" rx="15" fill="#c6a06e"/>
  <rect x="560" y="385" width="30" height="120" rx="15" fill="#c6a06e"/>
  <rect x="590" y="480" width="170" height="18" rx="9" fill="#8f6840"/>
  <circle cx="655" cy="440" r="60" fill="url(#gold)"/>
  <rect x="620" y="405" width="70" height="62" rx="12" fill="#2d2d2d" opacity="0.24"/>
  <rect x="140" y="420" width="210" height="130" rx="18" fill="#f2efe8" stroke="#d8c9b6"/>
  <rect x="155" y="384" width="178" height="38" rx="10" fill="#2c3e50" opacity="0.12"/>
  <rect x="210" y="248" width="70" height="130" rx="16" fill="#f6f6f6" stroke="#d9d9d9"/>
  <rect x="640" y="250" width="68" height="120" rx="10" fill="#b5895e"/>
  <rect x="720" y="268" width="70" height="104" rx="10" fill="#8fb97c"/>
  <rect x="560" y="216" width="120" height="24" rx="12" fill="#caa26e"/>
  <path d="M400 590l30-70 30 70" fill="none" stroke="#7c5d3d" stroke-width="8" stroke-linecap="round"/>
  <circle cx="430" cy="590" r="20" fill="#7c5d3d"/>
</svg>
