<svg xmlns="http://www.w3.org/2000/svg" viewBox="0 0 240 240" role="img" aria-label="QR de ejemplo">
  <rect width="240" height="240" rx="24" fill="white"/>
  <rect x="20" y="20" width="60" height="60" rx="10" fill="#17324d"/>
  <rect x="32" y="32" width="36" height="36" rx="8" fill="white"/>
  <rect x="160" y="20" width="60" height="60" rx="10" fill="#17324d"/>
  <rect x="172" y="32" width="36" height="36" rx="8" fill="white"/>
  <rect x="20" y="160" width="60" height="60" rx="10" fill="#17324d"/>
  <rect x="32" y="172" width="36" height="36" rx="8" fill="white"/>
  <rect x="104" y="24" width="18" height="18" fill="#17324d"/>
  <rect x="128" y="24" width="18" height="18" fill="#17324d"/>
  <rect x="104" y="48" width="18" height="18" fill="#17324d"/>
  <rect x="128" y="48" width="18" height="18" fill="#17324d"/>
  <rect x="104" y="96" width="18" height="18" fill="#17324d"/>
  <rect x="128" y="96" width="18" height="18" fill="#17324d"/>
  <rect x="152" y="96" width="18" height="18" fill="#17324d"/>
  <rect x="104" y="120" width="18" height="18" fill="#17324d"/>
  <rect x="152" y="120" width="18" height="18" fill="#17324d"/>
  <rect x="176" y="120" width="18" height="18" fill="#17324d"/>
  <rect x="104" y="144" width="18" height="18" fill="#17324d"/>
  <rect x="128" y="144" width="18" height="18" fill="#d8a03a"/>
  <rect x="152" y="144" width="18" height="18" fill="#17324d"/>
  <rect x="104" y="168" width="18" height="18" fill="#17324d"/>
  <rect x="176" y="168" width="18" height="18" fill="#17324d"/>
  <rect x="128" y="168" width="18" height="18" fill="#17324d"/>
  <text x="120" y="220" text-anchor="middle" font-family="Segoe UI, Arial, sans-serif" font-size="16" font-weight="700" fill="#17324d">QR EJEMPLO</text>
</svg>
